<?xml version="1.0" standalone="no"?>
<!DOCTYPE svg PUBLIC "-//W3C//DTD SVG 20010904//EN"
 "http://www.w3.org/TR/2001/REC-SVG-20010904/DTD/svg10.dtd">
<svg version="1.0" xmlns="http://www.w3.org/2000/svg"
 width="300.000000pt" height="300.000000pt" viewBox="0 0 300.000000 300.000000"
 preserveAspectRatio="xMidYMid meet">
<metadata>
Created by potrace 1.11, written by Peter Selinger 2001-2013
</metadata>
<g transform="translate(0.000000,300.000000) scale(0.100000,-0.100000)"
fill="#000000" stroke="none">
<path d="M1235 2209 c-27 -3 -58 -9 -67 -13 -23 -10 -36 -59 -34 -129 2 -51
-1 -58 -26 -77 -26 -19 -108 -122 -108 -135 0 -3 -9 -25 -19 -48 -75 -165 -87
-410 -30 -652 12 -49 25 -94 30 -100 5 -5 9 -16 9 -25 0 -22 64 -152 99 -204
39 -56 98 -112 151 -143 37 -21 62 -26 138 -31 l92 -5 1 -61 c0 -33 2 -125 5
-203 6 -140 5 -143 -15 -143 -12 0 -22 -6 -23 -12 -5 -42 -4 -209 2 -218 4 -7
63 -10 176 -8 162 3 169 4 167 23 -1 11 -5 47 -9 80 -3 33 -8 74 -9 92 -3 39
-12 54 -28 47 -10 -3 -13 8 -14 38 0 24 -4 122 -7 218 -10 243 -14 223 48 284
58 58 104 132 132 216 16 46 19 83 18 235 -2 191 -9 370 -18 395 -3 8 -7 33
-10 55 -24 185 -130 361 -248 409 -24 10 -50 21 -58 25 -8 4 -50 7 -93 7 l-79
-1 4 43 c2 32 0 42 -12 43 -42 4 -120 3 -165 -2z"/>
</g>
</svg>
